<svg width="287" height="135" viewBox="0 0 287 135" fill="none" xmlns="http://www.w3.org/2000/svg">
<g clip-path="url(#clip0_4_28)">
<path d="M286.192 131.83L286.192 32.3069L0.957611 32.3069L0.957611 131.83L286.192 131.83Z" fill="#F3F1E4"/>
<path fill-rule="evenodd" clip-rule="evenodd" d="M286.156 109.362V134.067H1.06149V131.821H94.9699L107.603 119.188H185.65V109.362H286.156Z" fill="#D5D0BA"/>
<path fill-rule="evenodd" clip-rule="evenodd" d="M286.156 39.8778V24.5774C253.59 -7.14657 45.4188 -9.25214 0.5 24.1562V39.4567C45.4188 12.5054 253.59 14.0495 286.156 39.7375V39.8778Z" fill="#25377F"/>
<path fill-rule="evenodd" clip-rule="evenodd" d="M286.156 31.0344V24.7177C278.997 17.8395 263.556 12.2247 243.202 8.29428C243.062 8.85576 242.921 9.55762 242.921 10.1191C242.921 18.6818 261.591 28.0866 284.612 30.8941C285.173 30.8941 285.594 31.0344 286.156 31.0344Z" fill="#E6E7E8"/>
<path fill-rule="evenodd" clip-rule="evenodd" d="M286.156 58.2665V39.176C253.59 13.488 45.4188 11.8036 0.5 38.8952V48.4405C7.09745 53.3535 20.2924 66.9695 20.2924 66.9695C34.4699 69.0751 49.2089 66.8291 61.5615 65.5658C76.0198 64.0217 89.3551 68.0925 103.533 66.6887C120.377 64.8639 129.361 50.546 145.644 48.1597C193.089 41.2815 245.308 46.8964 286.156 58.4068V58.2665Z" fill="#D5D0BA"/>
<path fill-rule="evenodd" clip-rule="evenodd" d="M46.5418 72.444H76.4409C81.0731 72.444 84.7228 76.234 84.7228 80.7259V120.03H38.2599V80.7259C38.2599 76.0936 42.0499 72.444 46.5418 72.444Z" fill="#25377F"/>
<path fill-rule="evenodd" clip-rule="evenodd" d="M38.2599 89.9904C39.6636 89.9904 40.9269 91.1134 40.9269 92.6574V117.363H46.6822C47.5244 115.959 49.0685 115.117 50.8933 115.117H72.2298C73.9142 115.117 75.4583 115.959 76.4409 117.363H82.1961V92.6574C82.1961 91.2537 83.3191 89.9904 84.8632 89.9904C86.2669 89.9904 87.5302 91.1134 87.5302 92.6574V120.03C87.5302 121.434 86.4073 122.697 84.8632 122.697H76.4409C75.5987 124.101 74.0546 124.943 72.2298 124.943H50.8933C49.2089 124.943 47.6648 124.101 46.6822 122.697H38.2599C36.8562 122.697 35.5928 121.574 35.5928 120.03V92.6574C35.5928 91.2537 36.7158 89.9904 38.2599 89.9904Z" fill="#373435" stroke="#373435" stroke-width="0.701857" stroke-miterlimit="2.61313"/>
<path fill-rule="evenodd" clip-rule="evenodd" d="M103.673 66.408H103.533C89.355 67.9521 76.0198 63.741 61.5615 65.285C49.2088 66.6888 34.4699 68.7943 20.2924 66.6888C20.2924 66.6888 20.0116 66.2676 19.3098 65.7062C33.0661 26.9637 104.515 36.5089 103.673 66.2676V66.408Z" fill="#B2B09F"/>
<path fill-rule="evenodd" clip-rule="evenodd" d="M94.9699 60.7932C94.9699 70.3384 79.9502 77.9185 61.5615 77.9185C43.0325 77.9185 28.1532 70.198 28.1532 60.7932C28.1532 51.2479 43.1729 43.6679 61.5615 43.6679C80.0905 43.6679 94.9699 51.3883 94.9699 60.7932ZM55.5256 59.9509L32.7854 64.3024C31.9432 63.0391 31.5221 61.6354 31.5221 60.0913C31.5221 51.9498 44.9977 45.3523 61.4212 45.3523C77.985 45.3523 91.3203 51.9498 91.3203 60.0913C91.3203 61.495 90.8991 62.8987 90.1973 64.1621L68.5801 60.2317C68.2994 58.2665 65.4919 56.582 61.9826 56.582C58.7541 56.582 55.9467 57.9857 55.3852 59.8106L55.5256 59.9509ZM33.3469 65.1447L36.7158 68.3732C35.3121 67.3906 34.1891 66.2676 33.3469 65.1447ZM39.2425 69.9173L56.5082 62.4776C57.6311 63.6006 59.7367 64.4428 62.123 64.4428C64.369 64.4428 66.1938 63.8813 67.4571 62.8987L84.0209 69.9173C78.5465 73.0055 70.5453 74.8303 61.7019 74.8303C52.8585 74.8303 44.8573 72.8651 39.3829 69.9173H39.2425Z" fill="#373435" stroke="#373435" stroke-width="0.701857" stroke-miterlimit="2.61313"/>
<path fill-rule="evenodd" clip-rule="evenodd" d="M0.5 30.6133V24.2966C7.65894 17.5588 23.0998 12.2247 43.4536 8.57502C43.594 9.13651 43.7344 9.83836 43.7344 10.3998C43.7344 18.9625 25.065 27.9463 2.04408 30.4729C1.4826 30.4729 1.06149 30.6133 0.5 30.6133Z" fill="#E6E7E8"/>
</g>
<defs>
<clipPath id="clip0_4_28">
<rect width="285.656" height="134.079" fill="white" transform="translate(0.5)"/>
</clipPath>
</defs>
</svg>
