<svg width="287" height="27" viewBox="0 0 287 27" fill="none" xmlns="http://www.w3.org/2000/svg">
<g clip-path="url(#clip0_4_2)">
<path fill-rule="evenodd" clip-rule="evenodd" d="M286.093 3.66713V15.3008C286.093 21.7499 280.908 26.9344 274.459 26.9344H12.1964C5.74728 26.9344 0.562714 21.7499 0.562714 15.3008V3.66713H286.093Z" fill="#25377F"/>
<path fill-rule="evenodd" clip-rule="evenodd" d="M243.858 26.9344H43.6831C43.6831 16.5653 52.1554 8.09297 62.5245 8.09297H225.143C235.512 8.09297 243.984 16.5653 243.984 26.9344H243.858Z" fill="#909083"/>
<path d="M153.856 4.4854C153.856 6.76161 155.701 8.60684 157.977 8.60684C160.254 8.60684 162.099 6.76161 162.099 4.4854C162.099 2.20919 160.254 0.36396 157.977 0.36396C155.701 0.36396 153.856 2.20919 153.856 4.4854Z" fill="#FFF212" stroke="#25377F" stroke-width="0.824288" stroke-miterlimit="2.61313"/>
<path d="M139.535 4.4854C139.535 6.76161 141.38 8.60684 143.657 8.60684C145.933 8.60684 147.778 6.76161 147.778 4.4854C147.778 2.20919 145.933 0.36396 143.657 0.36396C141.38 0.36396 139.535 2.20919 139.535 4.4854Z" fill="#FFF212" stroke="#25377F" stroke-width="0.824288" stroke-miterlimit="2.61313"/>
<path d="M125.216 4.4854C125.216 6.76161 127.061 8.60684 129.337 8.60684C131.613 8.60684 133.459 6.76161 133.459 4.4854C133.459 2.20919 131.613 0.36396 129.337 0.36396C127.061 0.36396 125.216 2.20919 125.216 4.4854Z" fill="#FFF212" stroke="#25377F" stroke-width="0.824288" stroke-miterlimit="2.61313"/>
<path fill-rule="evenodd" clip-rule="evenodd" d="M285.208 14.9214V15.5537C285.208 21.2441 280.403 25.9228 274.333 25.9228H255.997C260.55 19.0944 269.275 14.5421 279.265 14.5421C281.288 14.5421 283.185 14.6685 285.081 15.0479L285.208 14.9214Z" fill="#ED3237"/>
<path fill-rule="evenodd" clip-rule="evenodd" d="M285.208 14.6685V14.9214C285.208 17.8298 282.679 20.2324 279.644 20.2324H270.286C272.563 16.6918 277.115 14.4156 282.173 14.4156C283.185 14.4156 284.196 14.5421 285.081 14.6685H285.208Z" fill="#FFF212"/>
<path fill-rule="evenodd" clip-rule="evenodd" d="M1.70079 14.9214V15.5537C1.70079 21.2441 6.50599 25.9228 12.5757 25.9228H30.9114C26.3591 19.0944 17.6338 14.5421 7.64407 14.5421C5.62083 14.5421 3.72403 14.6685 1.82724 15.0479L1.70079 14.9214Z" fill="#ED3237"/>
<path fill-rule="evenodd" clip-rule="evenodd" d="M1.70079 14.6685V14.9214C1.70079 17.8298 4.22985 20.2324 7.26471 20.2324H16.6222C14.3461 16.6918 9.79377 14.4156 4.73566 14.4156C3.72403 14.4156 2.71241 14.5421 1.82724 14.6685H1.70079Z" fill="#FFF212"/>
</g>
<defs>
<clipPath id="clip0_4_2">
<rect width="285.656" height="26.9344" fill="white" transform="translate(0.5)"/>
</clipPath>
</defs>
</svg>
